# xmcd
#
# Track frame offsets: 
#        150
#        19541
#        39530
#        56635
#        80142
#        100246
#        120071
#
# Disc length: 1852 seconds
#
# Revision: 0
# Processed by: cddbd v1.5.2PL0 Copyright (c) Steve Scherf et al.
# Submitted via: ExactAudioCopy v0.99pb3
#
DISCID=4c073a07
DTITLE=Michael Osborne and The Drivers - The Glamorous Life
DYEAR=2010
DGENRE=Blues
TTITLE0=Why Get Up
TTITLE1=Here She Comes
TTITLE2=The Glamorous Life
TTITLE3=Needles And Pins
TTITLE4=Lollipop Mama
TTITLE5=Bright Lights Big City
TTITLE6=Little Suzanne
EXTD=
EXTT0=
EXTT1=
EXTT2=
EXTT3=
EXTT4=
EXTT5=
EXTT6=
PLAYORDER=
